<?xml version="1.0" encoding="utf-8"?>
<!DOCTYPE svg PUBLIC "-//W3C//DTD SVG 1.1//EN" "http://www.w3.org/Graphics/SVG/1.1/DTD/svg11.dtd">
<svg  version="1.1" xmlns="http://www.w3.org/2000/svg" xmlns:xlink="http://www.w3.org/1999/xlink" x="0px" y="0px">
	<style  type="text/css">

		svg .logos {
		fill:#0033a0;
		}

		svg .wordmark {
		fill:#2C2A29;
		}

		@media all and (max-height: 59px)  {
			svg * {display:none}
		}

		@media all and (min-width: 70px)  {
			#logo {
				display:inline;
			}
		}

		@media all and (min-width: 260px)  {
			#narrow {
				display:inline;
			}

			#logo {
				display:none;
			}
		}


		@media all and (min-width: 276px)  {

			#narrow {
				display:none;
			}

			#logo {
				display:none;
			}

			#scale {
				display:inline
			}
		}


	</style>

	<svg id="logo"   display="none"  preserveAspectRatio="xMinYMid meet" height="60px">
		<g class="logos">
			<g>
				<polygon  points="24.1,27.9 21.2,27.9 21.2,12.5 24.1,12.5 24.1,8.6 10.6,8.6 10.6,12.5 13.5,12.5
					13.5,27.9 17.4,31.7 24.1,31.7 24.1,27.9 		"/>
				<polygon  points="33.7,31.7 40.5,31.7 44.3,27.9 44.3,12.5 47.2,12.5 47.2,8.6 33.7,8.6 33.7,12.5
					36.6,12.5 36.6,27.9 33.7,27.9 33.7,31.7 		"/>
				<polygon  points="47.4,35.3 55.9,26.9 59.7,26.9 59.7,23.1 45.3,23.1 45.3,26.9 46.7,26.9 40.9,32.7
					32.8,32.7 32.8,26.9 35.7,26.9 35.7,23.1 22.2,23.1 22.2,26.9 25.1,26.9 25.1,44.2 22.2,44.2 22.2,48.1 35.7,48.1 35.7,44.2
					32.8,44.2 32.8,38.5 40.9,38.5 46.7,44.2 45.3,44.2 45.3,48.1 59.7,48.1 59.7,44.2 56.4,44.2 47.4,35.3 		"/>
				<path  d="M57.3,42.3l-7-7l6.5-6.5h4.8l0-7.7l-15.4,0v-6.7h2.9V6.7H31.8h0v7.7h0h2.9v6.7H23.1v-6.7H26h0V6.7
					h0H8.7v7.7h2.9v14.4h0l0,0l4.8,4.8h6.7v8.7h-2.9V50h17.3v-7.7h-2.9v-1.9H40l3.4,3.4V50h18.3l0-7.7h0H57.3L57.3,42.3z M60.7,49.1
					H44.3v-5.8h0l-3.9-3.9h-6.7v3.9h2.9v5.8H21.2v-5.8h2.9V32.7h-7.2l-4.3-4.3V13.4h0H9.7V7.7h15.4v5.8h-2.9v8.7h13.5v-8.7h-2.9V7.7
					h15.4v5.8h-2.9v8.7h15.4v5.8h-4.3l-7.5,7.5l7.9,7.9h3.9V49.1L60.7,49.1z"/>
			</g>
		</g>
	</svg>

	<svg id="narrow"     display="none"  preserveAspectRatio="xMinYMid meet" height="60px" width="260px">
		<g class="logos">
			<g>
				<polygon  points="24.1,27.9 21.2,27.9 21.2,12.5 24.1,12.5 24.1,8.6 10.6,8.6 10.6,12.5 13.5,12.5
					13.5,27.9 17.4,31.7 24.1,31.7 24.1,27.9 		"/>
				<polygon  points="33.7,31.7 40.5,31.7 44.3,27.9 44.3,12.5 47.2,12.5 47.2,8.6 33.7,8.6 33.7,12.5
					36.6,12.5 36.6,27.9 33.7,27.9 33.7,31.7 		"/>
				<polygon  points="47.4,35.3 55.9,26.9 59.7,26.9 59.7,23.1 45.3,23.1 45.3,26.9 46.7,26.9 40.9,32.7
					32.8,32.7 32.8,26.9 35.7,26.9 35.7,23.1 22.2,23.1 22.2,26.9 25.1,26.9 25.1,44.2 22.2,44.2 22.2,48.1 35.7,48.1 35.7,44.2
					32.8,44.2 32.8,38.5 40.9,38.5 46.7,44.2 45.3,44.2 45.3,48.1 59.7,48.1 59.7,44.2 56.4,44.2 47.4,35.3 		"/>
				<path  d="M57.3,42.3l-7-7l6.5-6.5h4.8l0-7.7l-15.4,0v-6.7h2.9V6.7H31.8h0v7.7h0h2.9v6.7H23.1v-6.7H26h0V6.7
					h0H8.7v7.7h2.9v14.4h0l0,0l4.8,4.8h6.7v8.7h-2.9V50h17.3v-7.7h-2.9v-1.9H40l3.4,3.4V50h18.3l0-7.7h0H57.3L57.3,42.3z M60.7,49.1
					H44.3v-5.8h0l-3.9-3.9h-6.7v3.9h2.9v5.8H21.2v-5.8h2.9V32.7h-7.2l-4.3-4.3V13.4h0H9.7V7.7h15.4v5.8h-2.9v8.7h13.5v-8.7h-2.9V7.7
					h15.4v5.8h-2.9v8.7h15.4v5.8h-4.3l-7.5,7.5l7.9,7.9h3.9V49.1L60.7,49.1z"/>
			</g>
		</g>
		<g class="wordmark">
			<g>
		<g>
			<path  d="M83.263,22.783l2.26,0.78v0.458h-7.291v-0.458l1.83-0.646L74.6,15.654h-1.56v7.425l2.69,0.484
				v0.458h-8.043v-0.458l2.664-0.484V7.826l-2.664-0.484V6.884h8.043v0.458l-2.69,0.484v6.94h1.829l5.945-6.591l-2.018-0.834V6.884
				h5.837v0.458L82.213,8.31l-5.703,5.945L83.263,22.783z"/>
		</g>
		<g>
			<path  d="M88.134,16.757c0,3.578,1.21,6.026,4.25,6.026c1.318,0,2.421-0.296,3.954-1.076L96.5,22.03
				c-1.668,1.587-3.174,2.421-4.923,2.421c-3.443,0-5.892-2.529-5.892-6.268c0-3.793,2.609-6.645,5.945-6.645
				s5.003,2.233,5.003,5.219H88.134z M94.052,16.004c-0.188-2.313-0.941-3.874-2.609-3.874c-1.722,0-3.121,1.614-3.282,4.062
				L94.052,16.004z"/>
			<path  d="M110.409,23.187l1.775,0.484v0.35h-5.73v-0.35l1.695-0.484v-6.752
				c0-2.045-0.727-3.013-2.529-3.013c-1.13,0-1.937,0.215-3.013,0.834v8.931l1.668,0.484v0.35h-5.73v-0.35l1.775-0.484v-9.334
				l-1.749-1.13V12.48l3.766-0.969l0.108,0.081l-0.054,2.152l0.107,0.054c1.614-1.506,3.147-2.26,4.6-2.26
				c2.421,0,3.309,1.83,3.309,3.74V23.187z"/>
			<path  d="M117.674,24.236c-2.045,0-2.637-0.915-2.637-2.825v-8.232h-1.883v-0.35l2.098-1.399l1.587-2.448
				h0.457v3.04h4.089v1.157h-4.089v7.317c0,0.968,0.081,1.587,0.646,1.964c0.377,0.215,1.049,0.323,1.991,0.323
				c0.431,0,0.942-0.027,1.507-0.054l0.027,0.269C120.283,23.725,118.938,24.236,117.674,24.236z"/>
			<path  d="M135.779,23.213v0.269l-3.767,0.941l-0.107-0.054l0.054-2.125l-0.107-0.054
				c-1.614,1.506-3.147,2.26-4.6,2.26c-2.421,0-3.309-1.83-3.309-3.74v-7.048l-1.749-0.941V12.48l3.928-0.969l0.107,0.081v7.962
				c0,2.072,0.727,3.04,2.502,3.04c1.13,0,1.937-0.242,3.013-0.861v-8.07l-1.776-0.941V12.48l3.928-0.969l0.107,0.081v10.922
				L135.779,23.213z"/>
			<path  d="M146.003,15.574c-0.968,0-1.533-0.807-1.533-1.614c0-0.592,0.242-1.184,0.592-1.587
				c-0.376-0.081-0.672-0.107-1.13-0.107c-2.26,0-4.385,1.587-4.385,5.434c0,2.852,1.533,5.084,4.277,5.084
				c1.318,0,2.528-0.377,3.793-0.996l0.134,0.35c-1.264,1.372-2.986,2.314-4.708,2.314c-3.47,0-5.918-2.502-5.918-6.241
				s2.771-6.672,6.618-6.672c2.233,0,3.712,1.076,3.712,2.421C147.456,14.874,146.837,15.574,146.003,15.574z"/>
			<path  d="M160.612,23.106l1.506,0.565v0.35h-5.273v-0.35l1.076-0.565l-3.524-4.95h-1.076v5.03l1.506,0.484
				v0.35h-5.676v-0.35l1.883-0.484V6.562l-1.964-1.157V5.136l4.143-1.049l0.107,0.054v13.208h1.21l3.524-4.17l-1.426-0.941v-0.269
				h4.95v0.35l-1.802,0.7l-3.874,3.927L160.612,23.106z"/>
			<path  d="M168.656,26.388c-0.888,2.206-2.018,3.282-3.524,3.282c-1.265,0-1.803-0.78-1.803-1.507
				c0-0.726,0.619-1.291,1.372-1.291c0.834,0,1.318,0.511,1.883,1.264c0.511-0.484,0.995-1.21,1.399-2.098l0.78-1.775l-4.681-11.379
				l-1.641-0.565v-0.35h6.134v0.35l-1.883,0.565l3.147,8.366h0.135l2.905-8.151l-1.695-0.78v-0.35h4.6v0.35l-1.83,0.834
				L168.656,26.388z"/>
		</g>
		<g>
			<path  d="M82.106,38.525c-1.776-3.551-3.659-4.95-6.026-4.95c-2.583,0-5.192,2.313-5.192,7.909
				c0,5.488,2.663,8.178,6.349,8.178c1.157,0,2.206-0.35,3.066-0.78v-4.95l-2.313-0.484v-0.458h6.968v0.458l-1.964,0.484v6.618
				l-0.269,0.107l-1.991-1.291c-1.265,0.834-2.771,1.372-4.546,1.372c-4.896,0-8.393-3.604-8.393-8.796c0-4.977,3.9-9.146,9.2-9.146
				c1.372,0,2.852,0.296,3.874,0.834l1.184-0.915h0.296l0.188,5.757L82.106,38.525z"/>
			<path  d="M88.564,43.072c0,3.578,1.21,6.026,4.25,6.026c1.318,0,2.421-0.296,3.954-1.076l0.162,0.323
				c-1.668,1.587-3.174,2.421-4.923,2.421c-3.443,0-5.892-2.529-5.892-6.268c0-3.793,2.609-6.645,5.945-6.645
				s5.003,2.233,5.003,5.219H88.564z M94.482,42.318c-0.188-2.313-0.941-3.874-2.609-3.874c-1.722,0-3.121,1.614-3.282,4.062
				L94.482,42.318z"/>
			<path  d="M104.867,50.766c-3.793,0-5.865-2.771-5.865-6.457c0-3.443,2.313-6.457,6.241-6.457
				c3.847,0,5.837,2.69,5.837,6.376C111.081,47.672,108.821,50.766,104.867,50.766z M104.948,38.445
				c-1.856,0-3.336,1.91-3.336,5.945c0,3.928,1.641,5.784,3.524,5.784c1.991,0,3.335-1.91,3.335-5.945
				C108.472,40.301,106.965,38.445,104.948,38.445z"/>
			<path  d="M118.722,49.985v0.35h-5.945v-0.35l1.883-0.484V32.876l-1.964-1.157V31.45l4.143-1.049
				l0.107,0.054v19.046L118.722,49.985z"/>
			<path  d="M126.067,50.766c-3.793,0-5.865-2.771-5.865-6.457c0-3.443,2.313-6.457,6.241-6.457
				c3.847,0,5.837,2.69,5.837,6.376C132.281,47.672,130.021,50.766,126.067,50.766z M126.148,38.445
				c-1.856,0-3.336,1.91-3.336,5.945c0,3.928,1.641,5.784,3.524,5.784c1.991,0,3.335-1.91,3.335-5.945
				C129.672,40.301,128.166,38.445,126.148,38.445z"/>
			<path  d="M139.546,46.165c-0.78,0-1.506-0.188-2.044-0.43c-0.404,0.376-0.592,1.157-0.592,1.722
				c0,0.807,0.592,1.049,1.964,1.076l3.309,0.054c2.771,0.054,3.874,1.022,3.874,2.878c0,2.125-2.34,4.52-6.86,4.52
				c-3.497,0-5.38-1.399-5.38-2.959c0-1.13,1.13-2.206,2.852-2.771l-0.027-0.135c-1.076-0.35-1.695-1.049-1.695-1.883
				c0-0.807,0.646-1.776,2.098-2.636v-0.135c-1.372-0.672-2.26-1.749-2.26-3.417c0-2.583,2.287-4.169,5.031-4.169
				c1.237,0,2.34,0.323,3.121,0.888c1.291-0.834,2.26-1.211,3.094-1.211c0.888,0,1.345,0.538,1.345,1.211
				c0,0.672-0.538,1.264-1.21,1.264s-1.13-0.43-1.21-1.103l-1.561,0.188l-0.054,0.134c0.7,0.7,1.049,1.561,1.049,2.502
				C144.388,44.363,142.397,46.165,139.546,46.165z M141.698,50.469l-4.466-0.054c-0.699,0.458-1.157,1.318-1.157,2.26
				c0,1.426,1.399,2.583,4.089,2.583c2.556,0,4.035-1.399,4.035-2.771C144.2,51.223,143.42,50.523,141.698,50.469z M139.465,38.417
				c-1.453,0-2.26,1.103-2.26,3.632c0,2.663,0.861,3.578,2.502,3.578c1.426,0,2.259-1.507,2.259-3.578
				C141.967,40.005,141.079,38.417,139.465,38.417z"/>
			<path  d="M147.699,39.037v-0.242l3.927-0.969l0.108,0.081v11.594l1.802,0.484v0.35h-5.945v-0.35
				l1.883-0.484v-9.334L147.699,39.037z M150.685,32.284c0.834,0,1.453,0.619,1.453,1.453c0,0.861-0.699,1.641-1.614,1.641
				c-0.834,0-1.426-0.619-1.426-1.479C149.098,33.064,149.797,32.284,150.685,32.284z"/>
			<path  d="M164.028,41.888c-0.968,0-1.533-0.807-1.533-1.614c0-0.592,0.242-1.184,0.592-1.587
				c-0.376-0.081-0.672-0.107-1.13-0.107c-2.26,0-4.385,1.587-4.385,5.434c0,2.852,1.533,5.084,4.277,5.084
				c1.318,0,2.528-0.377,3.793-0.996l0.134,0.35c-1.264,1.372-2.986,2.314-4.708,2.314c-3.47,0-5.918-2.502-5.918-6.241
				s2.771-6.672,6.618-6.672c2.233,0,3.712,1.076,3.712,2.421C165.48,41.188,164.862,41.888,164.028,41.888z"/>
			<path  d="M176.861,48.802c0,0.78,0.646,1.022,2.26,0.861l0.054,0.296c-0.511,0.35-1.856,0.807-2.824,0.807
				c-1.022,0-1.561-0.565-1.641-1.991l-0.107-0.054c-1.238,1.238-2.61,2.045-4.062,2.045c-1.749,0-2.878-1.022-2.878-2.664
				c0-2.421,2.878-3.739,6.941-4.277v-2.018c0-1.802-1.157-2.744-2.771-2.744c-0.592,0-1.292,0.134-1.991,0.403
				c0.592,0.484,0.834,1.049,0.834,1.561c0,0.672-0.511,1.291-1.265,1.291c-0.807,0-1.291-0.619-1.291-1.318
				c0-1.694,2.798-3.12,5.354-3.12c2.367,0,3.389,1.264,3.389,3.685V48.802z M174.602,44.605c-3.443,0-4.573,1.237-4.573,2.69
				c0,1.157,0.753,1.856,1.937,1.856c0.727,0,1.641-0.269,2.637-0.807V44.605z"/>
			<path  d="M185.712,49.985v0.35h-5.945v-0.35l1.883-0.484V32.876l-1.964-1.157V31.45l4.143-1.049
				l0.107,0.054v19.046L185.712,49.985z"/>
			<path  d="M199.541,50.738c-1.372,0-2.932-0.323-3.955-0.834l-1.076,0.915h-0.403l-0.323-5.892l0.43-0.054
				c1.749,4.008,3.551,5.084,5.461,5.084c1.964,0,3.336-1.292,3.336-3.309c0-1.641-0.646-2.475-3.255-3.578
				c-0.888-0.35-1.802-0.7-2.636-1.103c-1.91-0.941-2.744-2.233-2.744-4.224c0-3.417,2.825-4.95,5.299-4.95
				c1.13,0,2.018,0.323,2.852,0.834l1.103-0.915h0.376l0.458,5.165l-0.431,0.054c-1.533-3.067-3.04-4.358-4.842-4.358
				c-1.48,0-2.637,1.103-2.637,2.905c0,1.291,0.565,2.287,2.502,3.121c0.941,0.43,1.991,0.807,2.986,1.291
				c2.179,1.049,3.147,2.313,3.147,4.277C205.19,48.909,202.016,50.738,199.541,50.738z"/>
		</g>
		<g>
			<path  d="M220.391,49.528v0.269l-3.767,0.941l-0.107-0.054l0.054-2.125l-0.107-0.054
				c-1.614,1.506-3.147,2.26-4.6,2.26c-2.421,0-3.309-1.83-3.309-3.74v-7.048l-1.749-0.941v-0.242l3.928-0.969l0.107,0.081v7.962
				c0,2.072,0.727,3.04,2.502,3.04c1.13,0,1.937-0.242,3.013-0.861v-8.07l-1.776-0.941v-0.242l3.928-0.969l0.107,0.081v10.922
				L220.391,49.528z"/>
			<path  d="M229.62,40.866c-0.727,0-1.318-0.565-1.453-1.426c-0.996,0.081-2.018,0.861-2.395,1.749v8.312
				l1.856,0.484v0.35h-5.918v-0.35l1.775-0.484v-9.334l-1.749-1.13v-0.242l3.766-0.969l0.108,0.081l-0.054,2.636l0.107,0.081
				c0.861-1.668,2.287-2.771,3.524-2.771c1.21,0,1.803,0.753,1.803,1.561C230.992,40.274,230.427,40.866,229.62,40.866z"/>
			<path  d="M238.982,47.564h0.108l1.372-3.524l1.641-4.627l-1.722-0.78v-0.35h4.735v0.35l-1.964,0.834
				l-4.573,11.164h-0.646l-4.789-11.433l-1.668-0.565v-0.35h6.161v0.35l-1.883,0.565L238.982,47.564z"/>
			<path  d="M248.103,43.072c0,3.578,1.21,6.026,4.25,6.026c1.318,0,2.421-0.296,3.954-1.076l0.162,0.323
				c-1.668,1.587-3.174,2.421-4.923,2.421c-3.443,0-5.892-2.529-5.892-6.268c0-3.793,2.609-6.645,5.945-6.645
				s5.003,2.233,5.003,5.219H248.103z M254.021,42.318c-0.188-2.313-0.941-3.874-2.609-3.874c-1.722,0-3.121,1.614-3.282,4.062
				L254.021,42.318z"/>
			<path  d="M263.895,52.702c-0.888,2.206-2.018,3.282-3.524,3.282c-1.265,0-1.803-0.78-1.803-1.507
				c0-0.726,0.619-1.291,1.372-1.291c0.834,0,1.318,0.511,1.883,1.264c0.511-0.484,0.995-1.21,1.399-2.098l0.78-1.775l-4.681-11.379
				l-1.641-0.565v-0.35h6.134v0.35l-1.883,0.565l3.147,8.366h0.135l2.905-8.151l-1.695-0.78v-0.35h4.6v0.35l-1.83,0.834
				L263.895,52.702z"/>
		</g>
	</g>,<g>
	</g>,<g>
	</g>,<g>
	</g>,<g>
	</g>,<g>
	</g>,<g>
	</g>,<g>
	</g>,<g>
	</g>,<g>
	</g>,<g>
	</g>,<g>
	</g>,<g>
	</g>,<g>
	</g>,<g>
	</g>,<g>
	</g>
		</g>
	</svg>

	<svg id="scale" display="none" preserveAspectRatio="xMinYMin meet" viewBox="0 0 276 60">
		<g class="logos">
			<g>
				<polygon  points="24.1,27.9 21.2,27.9 21.2,12.5 24.1,12.5 24.1,8.6 10.6,8.6 10.6,12.5 13.5,12.5
					13.5,27.9 17.4,31.7 24.1,31.7 24.1,27.9 		"/>
				<polygon  points="33.7,31.7 40.5,31.7 44.3,27.9 44.3,12.5 47.2,12.5 47.2,8.6 33.7,8.6 33.7,12.5
					36.6,12.5 36.6,27.9 33.7,27.9 33.7,31.7 		"/>
				<polygon  points="47.4,35.3 55.9,26.9 59.7,26.9 59.7,23.1 45.3,23.1 45.3,26.9 46.7,26.9 40.9,32.7
					32.8,32.7 32.8,26.9 35.7,26.9 35.7,23.1 22.2,23.1 22.2,26.9 25.1,26.9 25.1,44.2 22.2,44.2 22.2,48.1 35.7,48.1 35.7,44.2
					32.8,44.2 32.8,38.5 40.9,38.5 46.7,44.2 45.3,44.2 45.3,48.1 59.7,48.1 59.7,44.2 56.4,44.2 47.4,35.3 		"/>
				<path  d="M57.3,42.3l-7-7l6.5-6.5h4.8l0-7.7l-15.4,0v-6.7h2.9V6.7H31.8h0v7.7h0h2.9v6.7H23.1v-6.7H26h0V6.7
					h0H8.7v7.7h2.9v14.4h0l0,0l4.8,4.8h6.7v8.7h-2.9V50h17.3v-7.7h-2.9v-1.9H40l3.4,3.4V50h18.3l0-7.7h0H57.3L57.3,42.3z M60.7,49.1
					H44.3v-5.8h0l-3.9-3.9h-6.7v3.9h2.9v5.8H21.2v-5.8h2.9V32.7h-7.2l-4.3-4.3V13.4h0H9.7V7.7h15.4v5.8h-2.9v8.7h13.5v-8.7h-2.9V7.7
					h15.4v5.8h-2.9v8.7h15.4v5.8h-4.3l-7.5,7.5l7.9,7.9h3.9V49.1L60.7,49.1z"/>
			</g>
		</g>
		<g class="wordmark">
			<g>
		<g>
			<path  d="M82.548,24.317l2.101,0.725v0.425h-6.777v-0.425l1.701-0.6l-5.077-6.752h-1.451v6.902l2.501,0.45
				v0.425h-7.478v-0.425l2.476-0.45v-14.18l-2.476-0.45V9.537h7.478v0.425l-2.501,0.45v6.453h1.701l5.527-6.127l-1.876-0.775V9.537
				h5.427v0.425l-2.251,0.9l-5.302,5.527L82.548,24.317z"/>
		</g>
		<g>
			<path  d="M87.074,18.715c0,3.326,1.125,5.602,3.951,5.602c1.226,0,2.251-0.275,3.676-1l0.15,0.3
				c-1.551,1.476-2.951,2.251-4.577,2.251c-3.201,0-5.477-2.351-5.477-5.827c0-3.526,2.426-6.178,5.527-6.178
				s4.652,2.076,4.652,4.852H87.074z M92.576,18.015c-0.175-2.151-0.875-3.602-2.426-3.602c-1.601,0-2.901,1.5-3.051,3.776
				L92.576,18.015z"/>
			<path  d="M107.78,24.692l1.65,0.45v0.325h-5.327v-0.325l1.576-0.45v-6.277c0-1.9-0.675-2.801-2.351-2.801
				c-1.05,0-1.801,0.2-2.801,0.775v8.303l1.551,0.45v0.325h-5.327v-0.325l1.651-0.45v-8.678l-1.625-1.05v-0.225l3.501-0.9l0.1,0.075
				l-0.05,2l0.1,0.05c1.5-1.4,2.926-2.101,4.276-2.101c2.251,0,3.076,1.701,3.076,3.477V24.692z"/>
			<path  d="M114.532,25.668c-1.901,0-2.451-0.851-2.451-2.626v-7.653h-1.75v-0.325l1.951-1.3l1.476-2.276
				h0.425v2.826h3.801v1.076h-3.801v6.802c0,0.9,0.075,1.476,0.6,1.826c0.35,0.2,0.976,0.3,1.851,0.3c0.4,0,0.875-0.025,1.401-0.05
				l0.025,0.25C116.958,25.193,115.708,25.668,114.532,25.668z"/>
			<path  d="M131.363,24.717v0.25l-3.501,0.875l-0.1-0.05l0.05-1.976l-0.1-0.05
				c-1.5,1.4-2.926,2.101-4.277,2.101c-2.25,0-3.076-1.701-3.076-3.477v-6.552l-1.625-0.875v-0.225l3.651-0.9l0.1,0.075v7.403
				c0,1.926,0.675,2.826,2.326,2.826c1.051,0,1.801-0.225,2.801-0.8v-7.502l-1.651-0.875v-0.225l3.651-0.9l0.1,0.075v10.154
				L131.363,24.717z"/>
			<path  d="M140.866,17.615c-0.9,0-1.426-0.75-1.426-1.5c0-0.55,0.225-1.1,0.55-1.476
				c-0.35-0.075-0.625-0.1-1.05-0.1c-2.101,0-4.077,1.476-4.077,5.052c0,2.651,1.426,4.727,3.977,4.727
				c1.226,0,2.351-0.35,3.526-0.925l0.125,0.325c-1.175,1.275-2.776,2.151-4.376,2.151c-3.226,0-5.502-2.326-5.502-5.802
				c0-3.477,2.576-6.203,6.152-6.203c2.076,0,3.452,1,3.452,2.251C142.216,16.965,141.641,17.615,140.866,17.615z"/>
			<path  d="M154.445,24.618l1.401,0.525v0.325h-4.902v-0.325l1-0.525l-3.276-4.602h-1v4.677l1.4,0.45v0.325
				h-5.277v-0.325l1.75-0.45V9.237l-1.826-1.075v-0.25l3.852-0.975l0.1,0.05v12.28h1.125l3.276-3.876l-1.326-0.875v-0.25h4.602
				v0.325l-1.675,0.65l-3.602,3.651L154.445,24.618z"/>
			<path  d="M161.922,27.668c-0.825,2.051-1.875,3.051-3.276,3.051c-1.176,0-1.676-0.725-1.676-1.4
				s0.575-1.201,1.275-1.201c0.775,0,1.226,0.475,1.75,1.175c0.476-0.45,0.925-1.125,1.301-1.951l0.725-1.65l-4.352-10.579
				l-1.525-0.525v-0.325h5.702v0.325l-1.751,0.525l2.926,7.778h0.125l2.701-7.578l-1.576-0.725v-0.325h4.276v0.325l-1.701,0.775
				L161.922,27.668z"/>
		</g>
		<g>
			<path  d="M81.473,38.95c-1.65-3.301-3.401-4.602-5.602-4.602c-2.401,0-4.827,2.151-4.827,7.353
				c0,5.102,2.476,7.603,5.902,7.603c1.075,0,2.05-0.325,2.851-0.726v-4.602l-2.15-0.45v-0.425h6.477v0.425l-1.826,0.45v6.152
				l-0.25,0.1l-1.851-1.201c-1.175,0.775-2.576,1.275-4.227,1.275c-4.552,0-7.803-3.351-7.803-8.178
				c0-4.627,3.626-8.503,8.553-8.503c1.275,0,2.651,0.275,3.601,0.775l1.101-0.85h0.275l0.175,5.352L81.473,38.95z"/>
			<path  d="M87.474,43.176c0,3.326,1.125,5.602,3.951,5.602c1.226,0,2.251-0.275,3.676-1l0.15,0.3
				c-1.551,1.476-2.951,2.251-4.577,2.251c-3.201,0-5.477-2.351-5.477-5.827c0-3.526,2.426-6.178,5.527-6.178
				s4.652,2.076,4.652,4.852H87.474z M92.976,42.476c-0.175-2.151-0.875-3.602-2.426-3.602c-1.601,0-2.901,1.5-3.051,3.776
				L92.976,42.476z"/>
			<path  d="M102.628,50.329c-3.526,0-5.452-2.576-5.452-6.002c0-3.201,2.15-6.002,5.802-6.002
				c3.577,0,5.427,2.501,5.427,5.927C108.406,47.453,106.305,50.329,102.628,50.329z M102.704,38.875
				c-1.726,0-3.101,1.776-3.101,5.527c0,3.651,1.525,5.377,3.276,5.377c1.851,0,3.101-1.776,3.101-5.527
				C105.98,40.6,104.579,38.875,102.704,38.875z"/>
			<path  d="M115.508,49.604v0.325h-5.527v-0.325l1.75-0.45V33.698l-1.826-1.075v-0.25l3.852-0.975l0.1,0.05
				v17.707L115.508,49.604z"/>
			<path  d="M122.335,50.329c-3.526,0-5.452-2.576-5.452-6.002c0-3.201,2.15-6.002,5.802-6.002
				c3.577,0,5.427,2.501,5.427,5.927C128.112,47.453,126.012,50.329,122.335,50.329z M122.41,38.875
				c-1.726,0-3.101,1.776-3.101,5.527c0,3.651,1.525,5.377,3.276,5.377c1.851,0,3.101-1.776,3.101-5.527
				C125.687,40.6,124.286,38.875,122.41,38.875z"/>
			<path  d="M134.864,46.052c-0.725,0-1.4-0.175-1.9-0.4c-0.375,0.35-0.55,1.075-0.55,1.601
				c0,0.75,0.55,0.975,1.826,1l3.076,0.05c2.576,0.05,3.601,0.95,3.601,2.676c0,1.976-2.176,4.202-6.377,4.202
				c-3.251,0-5.002-1.3-5.002-2.751c0-1.05,1.05-2.051,2.651-2.576l-0.025-0.125c-1-0.325-1.576-0.975-1.576-1.75
				c0-0.75,0.6-1.651,1.951-2.451v-0.125c-1.275-0.625-2.101-1.625-2.101-3.176c0-2.401,2.125-3.876,4.677-3.876
				c1.15,0,2.176,0.3,2.901,0.825c1.2-0.775,2.101-1.125,2.876-1.125c0.825,0,1.25,0.5,1.25,1.125c0,0.625-0.5,1.175-1.125,1.175
				c-0.625,0-1.05-0.4-1.125-1.025l-1.45,0.175l-0.05,0.125c0.65,0.65,0.976,1.451,0.976,2.326
				C139.366,44.376,137.515,46.052,134.864,46.052z M136.865,50.054l-4.151-0.05c-0.65,0.425-1.076,1.225-1.076,2.101
				c0,1.326,1.301,2.401,3.801,2.401c2.376,0,3.751-1.3,3.751-2.576C139.19,50.754,138.465,50.104,136.865,50.054z M134.789,38.85
				c-1.351,0-2.101,1.025-2.101,3.376c0,2.476,0.8,3.326,2.326,3.326c1.325,0,2.101-1.401,2.101-3.326
				C137.115,40.325,136.29,38.85,134.789,38.85z"/>
			<path  d="M142.441,39.425V39.2l3.651-0.9l0.1,0.075v10.779l1.676,0.45v0.325h-5.527v-0.325l1.75-0.45
				v-8.678L142.441,39.425z M145.217,33.147c0.775,0,1.351,0.575,1.351,1.351c0,0.8-0.65,1.525-1.5,1.525
				c-0.775,0-1.326-0.575-1.326-1.375C143.742,33.873,144.392,33.147,145.217,33.147z"/>
			<path  d="M157.621,42.076c-0.9,0-1.426-0.75-1.426-1.5c0-0.55,0.225-1.1,0.55-1.476
				c-0.35-0.075-0.625-0.1-1.05-0.1c-2.101,0-4.077,1.476-4.077,5.052c0,2.651,1.426,4.727,3.977,4.727
				c1.226,0,2.351-0.35,3.526-0.925l0.125,0.325c-1.175,1.275-2.776,2.151-4.376,2.151c-3.226,0-5.502-2.326-5.502-5.802
				c0-3.477,2.576-6.203,6.152-6.203c2.076,0,3.452,1,3.452,2.251C158.972,41.426,158.396,42.076,157.621,42.076z"/>
			<path  d="M169.55,48.503c0,0.725,0.6,0.95,2.101,0.8l0.05,0.275c-0.475,0.325-1.726,0.75-2.626,0.75
				c-0.951,0-1.451-0.525-1.526-1.851l-0.1-0.05c-1.151,1.15-2.426,1.901-3.777,1.901c-1.625,0-2.676-0.951-2.676-2.476
				c0-2.251,2.676-3.477,6.453-3.977v-1.875c0-1.676-1.076-2.551-2.576-2.551c-0.55,0-1.201,0.125-1.851,0.375
				c0.55,0.45,0.775,0.975,0.775,1.45c0,0.625-0.476,1.201-1.176,1.201c-0.75,0-1.2-0.575-1.2-1.226
				c0-1.576,2.601-2.901,4.977-2.901c2.201,0,3.151,1.175,3.151,3.426V48.503z M167.449,44.602c-3.201,0-4.252,1.15-4.252,2.501
				c0,1.076,0.7,1.726,1.801,1.726c0.675,0,1.525-0.25,2.451-0.75V44.602z"/>
			<path  d="M177.777,49.604v0.325h-5.527v-0.325l1.75-0.45V33.698l-1.826-1.075v-0.25l3.852-0.975l0.1,0.05
				v17.707L177.777,49.604z"/>
			<path  d="M190.631,50.304c-1.275,0-2.726-0.3-3.676-0.775l-1,0.851h-0.375l-0.3-5.477l0.4-0.05
				c1.626,3.726,3.301,4.727,5.077,4.727c1.826,0,3.101-1.201,3.101-3.076c0-1.525-0.6-2.301-3.026-3.326
				c-0.825-0.325-1.675-0.65-2.451-1.025c-1.775-0.875-2.551-2.076-2.551-3.926c0-3.176,2.626-4.602,4.927-4.602
				c1.05,0,1.875,0.3,2.651,0.775l1.025-0.85h0.35l0.425,4.802l-0.4,0.05c-1.425-2.851-2.826-4.051-4.501-4.051
				c-1.375,0-2.451,1.025-2.451,2.701c0,1.201,0.525,2.126,2.326,2.901c0.875,0.4,1.851,0.75,2.776,1.2
				c2.026,0.976,2.926,2.151,2.926,3.977C195.883,48.603,192.932,50.304,190.631,50.304z"/>
		</g>
		<g>
			<path  d="M210.013,49.178v0.25l-3.501,0.875l-0.1-0.05l0.05-1.976l-0.1-0.05
				c-1.5,1.4-2.926,2.101-4.277,2.101c-2.25,0-3.076-1.701-3.076-3.477V40.3l-1.625-0.875V39.2l3.651-0.9l0.1,0.075v7.403
				c0,1.926,0.675,2.826,2.326,2.826c1.051,0,1.801-0.225,2.801-0.8V40.3l-1.651-0.875V39.2l3.651-0.9l0.1,0.075v10.154
				L210.013,49.178z"/>
			<path  d="M218.59,41.125c-0.675,0-1.226-0.525-1.351-1.326c-0.925,0.075-1.875,0.8-2.226,1.626v7.728
				l1.726,0.45v0.325h-5.502v-0.325l1.651-0.45v-8.678l-1.625-1.05V39.2l3.501-0.9l0.1,0.075l-0.05,2.451l0.1,0.075
				c0.8-1.551,2.125-2.576,3.276-2.576c1.125,0,1.676,0.701,1.676,1.451C219.865,40.575,219.34,41.125,218.59,41.125z"/>
			<path  d="M227.293,47.353h0.1l1.275-3.276l1.525-4.302l-1.601-0.725v-0.325h4.402v0.325l-1.826,0.775
				l-4.252,10.378h-0.6l-4.452-10.629l-1.55-0.525v-0.325h5.727v0.325l-1.751,0.525L227.293,47.353z"/>
			<path  d="M235.771,43.176c0,3.326,1.125,5.602,3.951,5.602c1.226,0,2.251-0.275,3.676-1l0.15,0.3
				c-1.551,1.476-2.951,2.251-4.577,2.251c-3.201,0-5.477-2.351-5.477-5.827c0-3.526,2.426-6.178,5.527-6.178
				s4.652,2.076,4.652,4.852H235.771z M241.272,42.476c-0.175-2.151-0.875-3.602-2.426-3.602c-1.601,0-2.901,1.5-3.051,3.776
				L241.272,42.476z"/>
			<path  d="M250.45,52.129c-0.825,2.051-1.875,3.051-3.276,3.051c-1.176,0-1.676-0.725-1.676-1.4
				s0.575-1.201,1.275-1.201c0.775,0,1.226,0.475,1.75,1.175c0.475-0.45,0.925-1.125,1.301-1.951l0.725-1.65l-4.352-10.579
				l-1.525-0.525v-0.325h5.702v0.325l-1.751,0.525l2.926,7.778h0.125l2.701-7.578l-1.576-0.725v-0.325h4.276v0.325l-1.701,0.775
				L250.45,52.129z"/>
		</g>
	</g>
		</g>
	</svg>


</svg>
